<svg width="40" height="40" viewBox="0 0 40 40" fill="none" xmlns="http://www.w3.org/2000/svg">
<path d="M22.8575 25.082C24.7207 24.8614 26.5513 24.4217 28.3115 23.772C26.8209 22.1208 25.9972 19.9745 26.0005 17.75V17.05V17C26.0005 15.4087 25.3683 13.8826 24.2431 12.7574C23.1179 11.6321 21.5918 11 20.0005 11C18.4092 11 16.8831 11.6321 15.7578 12.7574C14.6326 13.8826 14.0005 15.4087 14.0005 17V17.75C14.0035 19.9746 13.1795 22.121 11.6885 23.772C13.4215 24.412 15.2485 24.857 17.1435 25.082M22.8575 25.082C20.9595 25.3071 19.0415 25.3071 17.1435 25.082M22.8575 25.082C23.0016 25.5319 23.0374 26.0094 22.9621 26.4757C22.8867 26.942 22.7023 27.384 22.4239 27.7656C22.1454 28.1472 21.7808 28.4576 21.3597 28.6716C20.9386 28.8856 20.4729 28.9972 20.0005 28.9972C19.5281 28.9972 19.0624 28.8856 18.6413 28.6716C18.2202 28.4576 17.8555 28.1472 17.5771 27.7656C17.2986 27.384 17.1142 26.942 17.0389 26.4757C16.9635 26.0094 16.9994 25.5319 17.1435 25.082" stroke="#5D6679" stroke-width="1.5" stroke-linecap="round" stroke-linejoin="round"/>
</svg>
