<?xml version="1.0" standalone="no"?>
<!DOCTYPE svg PUBLIC "-//W3C//DTD SVG 20010904//EN"
 "http://www.w3.org/TR/2001/REC-SVG-20010904/DTD/svg10.dtd">
<svg version="1.0" xmlns="http://www.w3.org/2000/svg"
 width="512.000000pt" height="512.000000pt" viewBox="0 0 512.000000 512.000000"
 preserveAspectRatio="xMidYMid meet">

<g transform="translate(0.000000,512.000000) scale(0.100000,-0.100000)"
fill="#000000" stroke="none">
<path d="M293 4225 c-151 -42 -251 -146 -282 -293 -7 -36 -11 -272 -11 -748
l0 -696 29 -29 29 -29 2531 0 2531 0 0 130 0 130 -1370 0 -1370 0 0 130 0 130
1370 0 1370 0 0 125 0 125 -1370 0 -1371 0 3 133 3 132 1368 3 1367 2 0 125 0
125 -1370 0 -1370 0 0 130 0 130 1356 0 1355 0 -7 23 c-28 89 -142 188 -249
215 -26 7 -813 12 -2265 16 -1933 5 -2232 4 -2277 -9z m-34 -215 c8 -24 16
-30 40 -30 40 0 47 -15 16 -36 -22 -14 -24 -21 -18 -57 6 -42 1 -44 -39 -9
-16 13 -20 13 -35 0 -41 -35 -46 -33 -40 9 6 36 4 43 -18 57 -31 21 -24 36 16
36 24 0 32 6 40 30 6 17 15 30 19 30 4 0 13 -13 19 -30z m481 -17 c0 -8 13
-13 35 -13 24 0 35 -5 35 -15 0 -8 -3 -15 -7 -15 -5 0 -16 -7 -25 -14 -15 -11
-16 -18 -7 -45 15 -42 6 -48 -27 -22 l-26 21 -28 -20 c-33 -23 -45 -13 -30 25
9 23 7 30 -15 47 -34 27 -31 38 9 38 29 0 36 4 46 33 11 31 12 31 26 13 7 -11
14 -26 14 -33z m469 17 c8 -26 15 -30 45 -30 43 0 46 -11 9 -38 -24 -17 -25
-22 -15 -50 13 -39 4 -46 -28 -22 -24 18 -25 18 -59 -2 l-33 -21 7 41 c6 36 4
42 -19 57 -32 21 -25 35 19 35 29 0 34 4 40 30 4 17 10 30 15 30 4 0 13 -13
19 -30z m476 0 c6 -26 11 -30 40 -30 44 0 51 -14 19 -35 -23 -15 -25 -21 -19
-57 l7 -41 -33 21 c-34 20 -35 20 -59 2 -32 -24 -41 -17 -28 22 10 28 9 33
-15 50 -36 26 -34 38 7 38 29 0 36 5 45 30 5 17 14 30 20 30 5 0 12 -13 16
-30z m476 0 c9 -25 16 -30 45 -30 40 0 43 -11 9 -38 -22 -17 -24 -24 -15 -47
14 -38 3 -48 -29 -26 -27 19 -27 19 -60 -1 l-33 -21 7 41 c6 35 4 43 -14 54
-32 20 -26 38 13 38 30 0 35 4 41 30 4 17 11 30 16 30 6 0 15 -13 20 -30z
m-1666 -150 c6 -26 11 -30 40 -30 44 0 51 -14 19 -35 -23 -15 -25 -21 -19 -57
l7 -41 -33 21 c-34 20 -35 20 -59 2 -32 -24 -41 -17 -28 22 10 28 9 33 -15 50
-36 26 -34 38 7 38 29 0 36 5 45 30 5 17 14 30 20 30 5 0 12 -13 16 -30z m476
0 c9 -25 16 -30 45 -30 40 0 43 -11 9 -38 -22 -17 -24 -24 -15 -47 15 -38 3
-48 -30 -25 -28 20 -28 20 -53 0 -35 -28 -38 -26 -31 19 5 33 3 41 -15 53 -32
20 -26 38 13 38 30 0 35 4 41 30 4 17 11 30 16 30 6 0 15 -13 20 -30z m478 0
c8 -24 16 -30 40 -30 40 0 47 -15 16 -36 -22 -14 -24 -21 -18 -57 6 -42 1 -44
-39 -9 -16 13 -20 13 -35 0 -41 -35 -46 -33 -40 9 6 36 4 43 -18 57 -31 21
-24 36 16 36 24 0 32 6 40 30 6 17 15 30 19 30 4 0 13 -13 19 -30z m481 -17
c0 -8 13 -13 35 -13 24 0 35 -5 35 -15 0 -8 -3 -15 -7 -15 -5 0 -16 -7 -25
-14 -15 -11 -16 -18 -7 -45 15 -42 6 -48 -27 -22 l-26 21 -30 -21 c-36 -26
-44 -20 -29 22 10 28 8 33 -14 51 -34 27 -31 38 9 38 29 0 36 4 46 33 11 31
12 31 26 13 7 -11 14 -26 14 -33z m-1671 -143 c8 -26 15 -30 45 -30 43 0 44
-6 11 -32 -22 -17 -25 -25 -19 -54 7 -38 3 -41 -31 -18 -23 15 -27 15 -50 0
-34 -23 -38 -20 -31 18 6 29 3 37 -19 54 -33 26 -32 32 11 32 30 0 37 4 45 30
6 17 15 30 19 30 4 0 13 -13 19 -30z m476 0 c6 -26 11 -30 41 -30 40 0 44 -13
10 -35 -22 -15 -23 -20 -14 -46 14 -39 6 -45 -31 -23 -28 17 -31 17 -49 1 -38
-35 -47 -20 -25 39 2 6 -7 19 -21 28 -35 23 -33 36 7 36 27 0 35 5 44 30 6 17
16 30 21 30 6 0 13 -13 17 -30z m476 0 c9 -25 16 -30 45 -30 41 0 42 -7 9 -35
-22 -18 -24 -24 -16 -52 11 -37 3 -41 -34 -17 -22 14 -26 14 -47 0 -33 -23
-40 -20 -33 15 6 25 2 36 -21 60 l-28 29 38 0 c32 0 38 4 47 30 6 17 15 30 20
30 6 0 15 -13 20 -30z m478 0 c8 -24 16 -30 40 -30 36 0 39 -10 10 -36 -16
-14 -19 -26 -14 -51 7 -37 0 -40 -33 -17 -20 14 -25 14 -52 -2 -36 -22 -44
-16 -30 22 10 26 9 31 -14 49 -34 28 -33 35 8 35 29 0 36 5 45 30 5 17 14 30
20 30 5 0 14 -13 20 -30z m472 0 c9 -25 16 -30 45 -30 41 0 42 -7 8 -35 -23
-18 -24 -23 -14 -49 14 -38 6 -44 -30 -23 -28 17 -31 17 -55 1 -32 -21 -40
-13 -27 25 9 26 8 31 -14 46 -34 22 -30 35 10 35 30 0 35 4 41 30 4 17 11 30
16 30 6 0 15 -13 20 -30z m-1662 -150 c8 -24 16 -30 40 -30 36 0 39 -10 10
-36 -16 -14 -19 -26 -14 -51 7 -37 0 -40 -33 -17 -21 14 -25 14 -47 0 -37 -24
-45 -20 -34 17 8 28 6 34 -16 52 -33 28 -32 35 9 35 29 0 36 5 45 30 5 17 14
30 20 30 5 0 14 -13 20 -30z m472 0 c9 -25 16 -30 45 -30 41 0 43 -12 8 -37
-22 -17 -24 -22 -14 -47 14 -38 6 -44 -30 -23 -28 17 -31 17 -55 1 -32 -21
-40 -13 -27 25 9 26 8 31 -14 46 -34 22 -30 35 10 35 30 0 35 4 41 30 4 17 11
30 16 30 6 0 15 -13 20 -30z m478 0 c8 -26 15 -30 45 -30 43 0 44 -6 11 -32
-22 -17 -25 -25 -19 -54 7 -38 -1 -42 -34 -18 -21 14 -25 14 -47 0 -34 -23
-38 -20 -31 19 6 29 3 36 -19 51 -35 23 -31 34 11 34 30 0 37 4 45 30 6 17 15
30 19 30 4 0 13 -13 19 -30z m476 0 c6 -26 11 -30 41 -30 40 0 44 -13 10 -36
-21 -13 -23 -19 -15 -40 17 -47 3 -59 -33 -27 -16 14 -22 15 -36 5 -45 -32
-58 -28 -42 14 10 25 8 30 -14 47 -35 25 -33 37 8 37 30 0 35 4 41 30 4 17 13
30 20 30 7 0 16 -13 20 -30z m-1665 -155 c10 -31 15 -35 48 -35 l37 -1 -28
-24 c-24 -21 -27 -30 -21 -60 7 -37 -5 -46 -26 -20 -7 8 -20 15 -30 15 -10 0
-23 -7 -30 -15 -21 -26 -33 -17 -26 20 6 30 3 39 -21 60 l-28 24 37 1 c33 0
38 4 48 35 6 19 15 35 20 35 5 0 14 -16 20 -35z m474 0 c13 -29 20 -35 45 -35
37 0 40 -12 6 -34 -21 -14 -23 -19 -13 -46 13 -40 6 -46 -27 -24 -25 17 -28
17 -56 0 -37 -22 -41 -19 -30 22 8 27 6 34 -15 51 -32 25 -30 31 11 31 19 0
35 4 35 9 0 15 19 61 25 61 2 0 11 -16 19 -35z m476 0 c10 -31 15 -35 48 -35
l37 -1 -28 -25 c-25 -22 -28 -28 -19 -53 13 -38 6 -44 -29 -24 -25 15 -29 15
-53 0 -36 -24 -39 -22 -31 21 6 35 3 41 -22 58 l-28 19 40 5 c34 4 41 9 49 38
12 41 22 41 36 -3z m476 0 c13 -31 19 -35 52 -35 l37 -1 -28 -23 c-25 -20 -28
-27 -22 -59 8 -42 5 -44 -31 -20 -24 15 -27 15 -55 -1 -37 -22 -43 -17 -29 20
10 26 8 31 -14 51 -34 29 -33 33 8 33 30 0 36 4 46 35 6 19 14 35 16 35 3 0
12 -16 20 -35z m479 -5 c6 -26 11 -30 41 -30 41 0 42 -4 8 -33 -22 -20 -24
-25 -14 -51 14 -37 8 -42 -29 -20 -28 17 -31 17 -56 0 -33 -22 -40 -16 -27 23
10 27 8 32 -21 55 l-32 25 37 1 c34 0 39 4 53 36 16 40 30 38 40 -6z m-1669
-145 c13 -31 19 -35 52 -35 l37 -1 -28 -23 c-25 -20 -28 -27 -22 -59 8 -42 5
-44 -31 -20 -24 15 -27 15 -55 -1 -37 -22 -43 -17 -29 20 10 26 8 31 -14 51
-34 29 -33 33 8 33 30 0 36 4 46 35 6 19 14 35 16 35 3 0 12 -16 20 -35z m479
-5 c6 -26 11 -30 41 -30 40 0 42 -6 10 -31 -21 -17 -23 -24 -15 -51 11 -41 7
-44 -30 -22 -28 17 -31 17 -56 0 -33 -22 -40 -16 -27 24 10 27 8 32 -13 46
-34 22 -31 34 6 34 25 0 32 6 45 35 17 40 29 39 39 -5z m471 8 c8 -29 15 -34
49 -38 l40 -5 -28 -22 c-25 -19 -27 -26 -21 -57 7 -38 -4 -47 -26 -21 -7 8
-20 15 -30 15 -10 0 -23 -7 -30 -15 -21 -26 -33 -17 -26 20 6 30 3 39 -21 60
l-28 24 37 1 c33 0 38 4 48 35 14 44 24 44 36 3z m478 -3 c13 -29 20 -35 45
-35 37 0 40 -12 6 -34 -21 -14 -23 -19 -13 -46 13 -40 6 -46 -27 -24 -25 17
-28 17 -56 0 -37 -22 -45 -16 -31 23 10 27 8 33 -14 50 -32 25 -30 31 7 31 25
0 32 6 45 35 8 19 16 35 19 35 3 0 11 -16 19 -35z m-1665 -155 c8 -24 16 -30
40 -30 40 0 47 -15 16 -36 -22 -14 -24 -21 -18 -57 l6 -41 -32 23 c-28 21 -34
21 -49 9 -40 -35 -45 -33 -39 9 6 36 4 43 -18 57 -31 21 -24 36 16 36 24 0 32
6 40 30 6 17 15 30 19 30 4 0 13 -13 19 -30z m476 0 c6 -26 11 -30 41 -30 40
0 43 -11 11 -37 -18 -14 -21 -24 -16 -43 14 -49 11 -53 -25 -31 l-33 21 -26
-20 c-30 -24 -41 -13 -27 25 9 23 7 30 -15 47 -34 27 -31 38 9 38 29 0 36 5
45 30 5 17 14 30 20 30 5 0 12 -13 16 -30z m474 0 c8 -26 15 -30 45 -30 43 0
46 -11 9 -38 -23 -17 -25 -22 -15 -50 14 -40 6 -46 -30 -21 -26 19 -31 19 -46
7 -39 -34 -45 -33 -37 10 6 36 4 42 -19 57 -32 21 -25 35 19 35 29 0 34 4 40
30 4 17 10 30 15 30 4 0 13 -13 19 -30z m476 0 c6 -26 11 -30 40 -30 44 0 51
-14 19 -35 -23 -15 -25 -21 -19 -57 l7 -41 -33 21 c-34 20 -35 20 -59 2 -32
-24 -41 -17 -28 22 10 28 9 33 -15 50 -36 26 -34 38 7 38 29 0 36 5 45 30 5
17 14 30 20 30 5 0 12 -13 16 -30z m476 0 c9 -25 16 -30 45 -30 40 0 43 -11 9
-38 -22 -17 -24 -24 -15 -47 14 -38 3 -48 -29 -26 -27 19 -27 19 -60 -1 l-33
-21 7 41 c6 35 4 43 -14 54 -32 20 -26 38 13 38 30 0 35 4 41 30 4 17 11 30
16 30 6 0 15 -13 20 -30z m-1666 -150 c6 -26 11 -30 40 -30 44 0 51 -14 19
-35 -23 -15 -25 -21 -19 -57 l7 -41 -33 21 c-34 20 -35 20 -59 2 -32 -24 -41
-17 -28 22 10 28 9 33 -15 50 -36 26 -34 38 7 38 29 0 36 5 45 30 5 17 14 30
20 30 5 0 12 -13 16 -30z m476 0 c9 -25 16 -30 45 -30 40 0 43 -11 9 -38 -22
-17 -24 -24 -15 -47 14 -38 3 -48 -29 -26 -27 19 -27 19 -59 -1 l-33 -20 7 40
c5 34 3 42 -15 54 -32 20 -26 38 13 38 30 0 35 4 41 30 4 17 11 30 16 30 6 0
15 -13 20 -30z m478 0 c8 -24 16 -30 40 -30 40 0 47 -15 16 -36 -22 -14 -24
-21 -18 -57 6 -42 1 -44 -39 -9 -16 13 -20 13 -35 0 -41 -35 -46 -33 -40 9 6
36 4 43 -18 57 -31 21 -24 36 16 36 24 0 32 6 40 30 6 17 15 30 19 30 4 0 13
-13 19 -30z m481 -17 c0 -8 13 -13 35 -13 41 0 44 -11 10 -38 -22 -18 -24 -23
-14 -51 13 -38 6 -50 -18 -29 -32 27 -40 28 -66 8 -30 -24 -41 -13 -27 25 9
23 7 30 -15 47 -34 27 -31 38 9 38 29 0 36 4 46 33 11 31 12 31 26 13 7 -11
14 -26 14 -33z m-1195 -143 c6 -26 11 -30 41 -30 40 0 44 -13 10 -35 -22 -15
-23 -20 -14 -46 14 -39 6 -45 -31 -23 -28 17 -31 17 -49 1 -38 -35 -47 -20
-25 40 3 6 -7 19 -21 28 -36 24 -33 35 9 35 19 0 35 4 35 9 0 22 21 62 29 56
5 -3 12 -19 16 -35z m1471 -30 c41 0 43 -12 9 -34 -26 -17 -26 -24 -8 -73 7
-19 -17 -16 -39 4 -18 16 -21 16 -49 -1 -37 -22 -45 -16 -31 23 9 26 8 31 -14
46 -34 22 -30 35 11 35 19 0 35 4 35 9 0 5 5 22 11 38 l12 28 15 -37 c13 -33
19 -38 48 -38z m-1947 30 c8 -26 15 -30 45 -30 43 0 44 -6 11 -32 -22 -17 -25
-25 -19 -54 7 -38 3 -41 -31 -18 -23 15 -27 15 -50 0 -34 -23 -38 -20 -31 18
6 29 3 37 -19 54 -33 26 -32 32 11 32 30 0 37 4 45 30 6 17 15 30 19 30 4 0
13 -13 19 -30z m952 0 c9 -25 16 -30 45 -30 41 0 42 -7 9 -35 -22 -18 -24 -24
-16 -52 11 -37 3 -41 -34 -17 -22 14 -26 14 -47 0 -33 -23 -40 -20 -33 15 6
25 2 36 -21 60 l-28 29 38 0 c32 0 38 4 47 30 6 17 15 30 20 30 6 0 15 -13 20
-30z m478 0 c8 -24 16 -30 40 -30 36 0 40 -13 10 -34 -18 -12 -20 -21 -15 -50
8 -40 1 -44 -32 -20 -20 14 -25 14 -52 -2 -36 -22 -44 -16 -30 22 10 26 9 31
-14 49 -34 28 -33 35 8 35 29 0 36 5 45 30 5 17 14 30 20 30 5 0 14 -13 20
-30z"/>
<path d="M0 2045 l0 -125 2560 0 2560 0 0 125 0 125 -2560 0 -2560 0 0 -125z"/>
<path d="M0 1525 l0 -125 2560 0 2560 0 0 125 0 125 -2560 0 -2560 0 0 -125z"/>
<path d="M36 1118 c21 -70 107 -156 194 -197 l55 -26 2275 0 2275 0 55 26 c87
41 173 127 194 197 l7 22 -2531 0 -2531 0 7 -22z"/>
</g>
</svg>
