<?xml version="1.0" standalone="no"?>
<!DOCTYPE svg PUBLIC "-//W3C//DTD SVG 20010904//EN"
 "http://www.w3.org/TR/2001/REC-SVG-20010904/DTD/svg10.dtd">
<svg version="1.0" xmlns="http://www.w3.org/2000/svg"
 width="512.000000pt" height="512.000000pt" viewBox="0 0 512.000000 512.000000"
 preserveAspectRatio="xMidYMid meet">

<g transform="translate(0.000000,512.000000) scale(0.100000,-0.100000)"
fill="#000000" stroke="none">
<path d="M2460 4668 c-25 -14 -58 -44 -75 -67 l-30 -43 -3 -1121 c-2 -778 0
-1133 8 -1159 35 -120 187 -180 300 -118 24 14 58 45 75 68 l30 44 0 1142 0
1143 -27 39 c-44 62 -90 88 -167 92 -55 3 -74 -1 -111 -20z"/>
<path d="M1639 4027 c-96 -36 -309 -195 -445 -333 -371 -375 -572 -890 -551
-1414 16 -399 142 -760 378 -1080 84 -115 303 -330 416 -410 476 -335 1053
-443 1609 -300 480 124 901 441 1163 874 248 412 330 922 225 1395 -113 508
-418 940 -857 1215 -97 60 -149 74 -214 57 -64 -17 -106 -51 -135 -110 -36
-71 -36 -121 0 -191 24 -49 39 -63 147 -134 88 -59 152 -112 240 -200 176
-177 289 -357 360 -576 60 -188 70 -253 70 -475 0 -221 -15 -318 -77 -494
-149 -426 -508 -778 -938 -921 -371 -124 -785 -94 -1134 81 -407 205 -687 560
-793 1009 -30 130 -42 390 -24 521 63 440 296 809 668 1056 106 70 121 84 146
132 16 34 27 70 27 95 0 43 -29 118 -58 149 -46 52 -157 78 -223 54z"/>
</g>
</svg>
