<svg width="41" height="39" viewBox="0 0 41 39" fill="none" xmlns="http://www.w3.org/2000/svg">
<path d="M16.8513 0.0912628C15.8621 0.319912 15.0778 0.731483 14.2134 1.46317C13.1172 2.38539 12.5202 3.28475 12.1369 4.55758L11.9854 5.06823L11.4686 4.73287C10.212 3.93259 8.05536 3.20853 6.23736 2.97989C4.02724 2.7055 2.1023 3.06372 0.925942 3.9707C0.346676 4.42038 -0.0365297 5.04536 0.0882351 5.33499C0.204088 5.60175 0.373412 5.66272 1.21112 5.7618C5.46203 6.2877 9.33865 7.54528 12.03 9.26778C12.4667 9.54978 12.4845 9.57265 12.2974 9.61076C8.56333 10.2129 5.14121 11.5924 1.5765 13.9399L1.31806 14.1076L1.38044 13.8484C1.55868 13.0786 2.44985 11.9354 3.41233 11.2494C4.41936 10.533 5.79177 9.83941 6.80771 9.53454C7.31568 9.3821 7.49392 9.22205 7.49392 8.91718C7.49392 8.60469 7.22656 8.3608 6.879 8.3608C6.51362 8.3608 5.22142 8.84097 4.25894 9.33637C1.21112 10.8988 -0.428648 13.1167 0.0971469 14.984C0.328853 15.8224 0.836824 15.9901 1.55868 15.4566C2.37856 14.8545 3.4658 14.1609 4.55303 13.5512C5.5868 12.9719 8.00189 11.8896 8.91089 11.6L9.30301 11.4781L9.24062 11.6534C8.93762 12.5299 8.73265 13.3682 8.65245 14.0542C8.36727 16.3941 9.26736 18.3757 10.9071 19.0617C11.2814 19.2217 11.4329 19.2522 11.6022 19.1912C11.9765 19.0769 12.0478 18.9168 12.1369 18.1013C12.2884 16.6837 12.6627 15.0298 13.1529 13.5969C13.2331 13.353 13.3133 13.1625 13.3311 13.1777C13.4024 13.2387 14.2045 15.2279 14.5788 16.2492C16.5572 21.714 17.8227 29.572 17.8316 36.462V37.8567H16.985C16.2007 37.8567 16.1116 37.872 15.9155 38.0473C15.6304 38.2836 15.6304 38.5732 15.9155 38.8095L16.1294 39H21.3785H26.6275L26.8146 38.8247C27.0731 38.5884 27.0731 38.2378 26.8057 38.0244C26.6275 37.8796 26.4938 37.8567 25.8254 37.8567C25.3977 37.8567 25.0501 37.8491 25.0501 37.8339C25.0501 37.8263 25.1838 37.2699 25.3531 36.5992C26.3334 32.7045 27.581 29.0308 29.0426 25.7383C29.3634 25.0371 29.3634 25.0218 29.4347 25.281C29.5684 25.8221 29.702 27.7656 29.6664 28.4744C29.6129 29.2747 29.6753 29.4881 30.014 29.6177C30.317 29.7396 30.3793 29.7244 30.9764 29.4881C31.9478 29.0918 32.741 28.162 33.1242 26.9577C33.2489 26.5766 33.2846 26.1727 33.2935 25.1666C33.2935 24.4502 33.2578 23.7033 33.2222 23.5051C33.1509 23.1393 33.1509 23.1393 33.3559 23.2307C34.5322 23.7566 36.6265 25.2352 37.6781 26.2794C38.0613 26.6529 38.4712 26.9806 38.5871 27.0111C38.9168 27.0797 39.2376 26.8891 39.4872 26.4623C39.6832 26.1193 39.71 25.9898 39.71 25.2047C39.71 24.4273 39.6832 24.2749 39.4783 23.8481C39.1129 23.1164 38.694 22.5676 38.0346 21.9579C37.0453 21.0509 35.8868 20.3802 34.6659 20.022C34.2738 19.9 33.9886 19.7933 34.0243 19.7705C34.1758 19.6943 35.5393 19.4199 36.3681 19.2979C36.8315 19.2293 37.9722 19.1531 38.8901 19.1302C40.3605 19.0921 40.5922 19.0693 40.7883 18.9397C41.0735 18.7415 41.0735 18.3986 40.7705 17.9184C40.3071 17.1639 39.4159 16.577 38.2039 16.234C37.5355 16.0435 37.3751 16.0282 36.0116 16.0282C34.6926 16.0358 34.4431 16.0587 33.65 16.2416C33.1598 16.356 32.4112 16.5998 31.9924 16.7828L31.2171 17.1105L31.1547 16.6837C30.9051 14.9231 29.4169 13.1167 27.688 12.4841C26.672 12.1107 25.3175 12.0878 24.9075 12.4384C24.5689 12.728 24.6313 12.9567 25.2551 13.6655C25.9858 14.5039 26.5918 15.3651 27.0285 16.234C27.4117 16.9809 27.8484 18.208 27.7949 18.3528C27.7771 18.4062 27.6256 18.3452 27.4295 18.2004C26.8859 17.7888 25.7363 17.2401 24.9699 17.019C23.4995 16.6075 21.53 16.4855 20.015 16.7066C19.5872 16.7751 19.2218 16.8133 19.2129 16.8056C19.204 16.7904 18.9812 16.2492 18.7227 15.6014C18.4732 14.9536 18.0455 13.9475 17.7781 13.3606C17.5018 12.7814 17.3058 12.2936 17.3236 12.2783C17.3771 12.2326 19.1238 13.2768 20.0595 13.917C20.5229 14.2371 21.2537 14.7783 21.6815 15.1212C22.5192 15.8072 22.7152 15.8682 23.1252 15.5938C23.6955 15.2127 23.7935 13.6884 23.3123 12.6671C22.9202 11.821 22.2072 10.975 21.218 10.1671L20.3358 9.4507L20.8437 9.39735C21.4676 9.33637 23.954 9.46594 25.2283 9.626C25.7452 9.68697 26.6097 9.82416 27.1444 9.93087C28.6683 10.2281 28.7396 10.2357 28.9713 10.0376C29.4169 9.65649 28.998 8.37604 28.1781 7.58339C27.4028 6.84408 25.87 6.15813 24.2748 5.83802C23.7133 5.72369 23.0539 5.67034 21.931 5.63985C20.5675 5.60937 20.2556 5.62461 19.4357 5.76942C18.0098 6.01332 16.6641 6.55446 15.6749 7.27852C15.4254 7.45382 15.2115 7.59101 15.1937 7.57576C15.1313 7.53003 15.5591 6.36391 15.8532 5.76942C16.5037 4.46611 17.6712 2.97989 18.999 1.76804C19.712 1.12019 19.8813 0.929649 19.8813 0.739105C19.8813 0.274181 19.3644 0.0683975 18.0989 0.0074234C17.591 -0.0154419 17.181 0.0150452 16.8513 0.0912628ZM17.2434 1.70706C15.9779 2.97989 14.7481 4.81671 14.2223 6.22672C14.0975 6.58495 13.9639 6.92792 13.946 6.98889C13.9104 7.06511 13.7945 6.95841 13.5985 6.68402C13.34 6.32581 13.2866 6.19624 13.2866 5.79991C13.2777 3.864 15.1937 1.60036 17.1899 1.20403C17.8583 1.06684 17.8583 1.09732 17.2434 1.70706ZM7.0305 4.28319C9.44559 4.78622 11.2814 5.76942 12.3419 7.13371C12.6627 7.54528 13.1083 8.32269 13.1083 8.47512C13.1083 8.49799 12.734 8.2922 12.2884 8.02544C10.613 7.04225 8.99109 6.35629 6.85227 5.72369C5.667 5.38072 3.56383 4.90817 2.72612 4.80909C2.01318 4.72525 1.96862 4.66428 2.46768 4.45087C2.85088 4.28319 3.30538 4.17649 4.10744 4.06216C4.6065 3.98595 6.17497 4.10789 7.0305 4.28319ZM23.6064 6.90506C24.6134 7.07273 25.6561 7.40047 26.2888 7.74344C26.6899 7.96447 27.6078 8.71902 27.5365 8.77237C27.5187 8.78761 27.0018 8.71902 26.3869 8.61994C24.6134 8.33793 23.4371 8.2541 21.4854 8.2541C19.2664 8.26172 17.9296 8.40653 15.871 8.86383C15.6838 8.90956 15.7106 8.85621 16.0938 8.51323C16.9671 7.7282 18.2593 7.14133 19.703 6.88219C20.5853 6.71451 22.5459 6.72976 23.6064 6.90506ZM18.9277 10.0376C20.6922 11.0513 22.0825 12.5527 22.2518 13.6503L22.3142 14.0161L21.2091 13.2387C20.006 12.3927 18.3485 11.4247 17.0473 10.7921C16.2809 10.4187 15.8977 10.1443 16.0136 10.0452C16.1027 9.96898 17.6088 9.67173 17.9385 9.66411C18.188 9.65649 18.4197 9.74795 18.9277 10.0376ZM15.6036 11.9049C18.4019 16.798 20.8794 26.0355 21.833 35.1968C21.931 36.1342 22.0379 37.1174 22.0647 37.3842L22.1181 37.8567H20.6566H19.1951L19.1416 35.4712C18.9634 28.2305 17.8672 21.653 15.9155 16.0663C15.4076 14.6182 14.4986 12.507 13.9193 11.4476C13.5005 10.6854 13.4826 10.6473 13.6698 10.6397C13.7767 10.6397 14.0441 10.594 14.2669 10.5406L14.6679 10.4491L14.8729 10.7235C14.9887 10.8683 15.3185 11.4019 15.6036 11.9049ZM12.4043 11.4095C12.4934 11.6457 12.4578 11.7753 12.1726 12.4765C11.6379 13.7951 11.0141 16.1121 10.8626 17.3925C10.8358 17.6135 10.8269 17.6135 10.5507 17.202C10.3902 16.9733 10.1942 16.5465 10.114 16.2492C9.92683 15.5709 9.92683 14.1761 10.114 13.353C10.2744 12.6518 10.7556 11.3333 10.916 11.1427C10.9784 11.0741 11.2458 10.9674 11.5131 10.9141C11.9676 10.8226 12.0033 10.8302 12.1459 10.9827C12.235 11.0665 12.3508 11.2647 12.4043 11.4095ZM27.6702 13.757C28.2583 14.0694 28.8733 14.6868 29.2386 15.3346C29.702 16.1349 29.8625 16.7066 29.8625 17.5221C29.8625 18.1242 29.8357 18.2233 29.6218 18.49C29.4793 18.6577 29.3545 18.7949 29.3278 18.8025C29.301 18.8025 29.2119 18.4824 29.1228 18.0937C28.8376 16.8361 28.0355 15.1593 27.1622 13.978C27.0018 13.7646 26.8414 13.5435 26.8057 13.4902C26.7077 13.3606 27.2246 13.5131 27.6702 13.757ZM37.3038 17.2401C37.9187 17.3544 39.0416 17.766 39.0416 17.8803C39.0416 17.9108 38.5871 17.9641 38.0435 17.987C35.6106 18.1089 33.1242 18.6501 31.1547 19.4885C30.6734 19.6943 30.2546 19.8467 30.2278 19.8238C30.1298 19.7476 31.0923 18.6882 31.5379 18.3681C32.9816 17.3696 35.3967 16.8971 37.3038 17.2401ZM23.9361 17.9565C24.8006 18.1471 25.9324 18.612 26.476 19.0083C26.9661 19.3589 27.59 19.9381 27.5276 19.9839C27.5008 20.0067 27.2513 19.9381 26.9572 19.8391C25.5937 19.3665 23.3569 18.9931 21.2804 18.8864C20.5497 18.8482 19.9258 18.7873 19.8902 18.7492C19.7654 18.6272 19.605 18.0175 19.6763 17.9565C19.9793 17.6974 22.7687 17.6974 23.9361 17.9565ZM22.332 20.1058C22.8756 20.1516 23.348 20.2049 23.3836 20.2278C23.4282 20.2506 23.2677 20.3802 23.0271 20.5174C22.4033 20.8756 21.6369 21.493 21.2448 21.9503L20.9061 22.339L20.5853 21.2034C20.4071 20.5707 20.2734 20.0449 20.2912 20.022C20.318 19.9686 21.1467 20.0067 22.332 20.1058ZM26.1819 20.8146C26.5205 20.9137 26.9127 21.0433 27.0463 21.1043C27.2602 21.2034 27.278 21.2262 27.1533 21.3101C27.0731 21.371 26.6008 21.5539 26.0928 21.7369C24.9699 22.1256 23.5708 22.7582 22.4746 23.3755C21.5567 23.8862 21.4943 23.8633 21.9577 23.124C22.4746 22.2856 23.7312 21.3558 25.0679 20.8223C25.3264 20.7156 25.5403 20.6317 25.5492 20.6317C25.5492 20.6317 25.8343 20.7156 26.1819 20.8146ZM33.6232 20.9442C35.0669 21.2034 36.876 22.3237 37.7494 23.4822C38.1148 23.9776 38.4178 24.656 38.4178 24.999C38.4178 25.2124 38.3821 25.1971 37.5533 24.5188C35.7621 23.0554 33.445 21.7826 31.6359 21.2796C30.9497 21.089 30.9319 21.0662 31.3775 20.9671C31.8943 20.8451 33.0261 20.8375 33.6232 20.9442ZM29.1406 21.9122L29.4793 21.9655L28.9624 22.9411C27.0998 26.409 25.264 31.4469 24.0163 36.5077C23.8025 37.3613 23.642 37.8567 23.5708 37.8567C23.4549 37.8567 23.446 37.8186 23.2143 35.4559C22.9469 32.6054 22.6439 30.5628 22.0468 27.4531L21.6369 25.3267L21.9399 25.1057C22.742 24.5264 25.9591 22.8877 25.8433 23.124C25.8254 23.1545 25.5224 23.6652 25.166 24.252C24.3906 25.5553 23.446 27.4303 23.446 27.6665C23.4549 28.0553 23.945 28.2991 24.3906 28.1391C24.5956 28.0705 24.7025 27.9485 24.8273 27.6742C25.567 25.9669 27.2513 23.185 28.2494 21.9884C28.4366 21.7674 28.5079 21.7292 28.6415 21.7902C28.7307 21.8283 28.9535 21.8817 29.1406 21.9122ZM31.5735 22.56C31.9835 23.1164 32.1082 25.9745 31.7607 26.8586C31.6626 27.1178 31.4666 27.4989 31.324 27.697L31.0745 28.0629L30.9586 26.8053C30.8517 25.5553 30.6823 24.5416 30.4417 23.6194C30.308 23.1393 30.308 23.1393 30.5754 22.6896L30.8428 22.2323L31.1725 22.3466C31.3596 22.4152 31.5379 22.5067 31.5735 22.56Z" fill="#F9A63A"/>
</svg>
