<?xml version="1.0" standalone="no"?>
<!DOCTYPE svg PUBLIC "-//W3C//DTD SVG 20010904//EN"
 "http://www.w3.org/TR/2001/REC-SVG-20010904/DTD/svg10.dtd">
<svg version="1.0" xmlns="http://www.w3.org/2000/svg"
 width="512.000000pt" height="512.000000pt" viewBox="0 0 512.000000 512.000000"
 preserveAspectRatio="xMidYMid meet">

<g transform="translate(0.000000,512.000000) scale(0.100000,-0.100000)"
fill="#000000" stroke="none">
<path d="M1940 1819 c-118 -72 -227 -142 -242 -154 -15 -12 -48 -26 -75 -30
-26 -4 -138 -24 -248 -46 -169 -33 -213 -45 -285 -81 -158 -77 -279 -232 -315
-404 -9 -42 -15 -126 -15 -216 l0 -147 86 -76 c482 -429 1073 -657 1704 -658
304 0 541 37 816 128 333 110 653 297 913 533 l81 73 0 153 c0 248 -43 370
-176 503 -112 111 -183 141 -469 198 -127 25 -238 45 -247 45 -9 0 -29 11 -45
24 -15 13 -98 66 -183 118 -85 52 -181 111 -212 131 -31 21 -60 37 -63 37 -3
0 -5 -84 -5 -187 0 -399 -95 -892 -287 -1495 -53 -166 -57 -176 -83 -182 -15
-3 -39 -8 -52 -11 -21 -5 -27 -2 -36 22 -33 81 -149 475 -197 667 -98 399
-136 653 -144 964 l-6 222 -215 -131z"/>
</g>
</svg>
