<?xml version="1.0" standalone="no"?>
<!DOCTYPE svg PUBLIC "-//W3C//DTD SVG 20010904//EN"
 "http://www.w3.org/TR/2001/REC-SVG-20010904/DTD/svg10.dtd">
<svg version="1.0" xmlns="http://www.w3.org/2000/svg"
 width="512.000000pt" height="512.000000pt" viewBox="0 0 512.000000 512.000000"
 preserveAspectRatio="xMidYMid meet">

<g transform="translate(0.000000,512.000000) scale(0.100000,-0.100000)"
fill="#000000" stroke="none">
<path d="M2300 5111 c-37 -6 -39 -13 -24 -74 9 -39 -6 -52 -99 -83 -96 -31
-201 -81 -260 -123 -23 -17 -96 -49 -162 -72 -255 -89 -518 -234 -720 -397
l-29 -23 25 -16 c13 -9 54 -46 91 -84 80 -82 123 -164 145 -277 15 -77 15 -93
-2 -237 -23 -197 -17 -314 31 -592 63 -369 45 -489 -95 -636 -77 -81 -187
-152 -374 -241 -178 -85 -292 -151 -405 -235 -104 -78 -222 -189 -222 -209 0
-38 93 -291 152 -413 60 -127 63 -131 78 -110 149 213 219 256 665 416 l270
96 0 137 c0 118 3 147 23 205 40 114 117 194 262 271 69 37 235 106 254 106 6
0 24 -21 41 -48 95 -150 334 -330 495 -372 76 -20 197 -14 274 14 82 29 207
104 291 173 61 50 159 163 185 212 15 30 35 26 175 -35 309 -135 405 -271 393
-555 l-4 -107 285 -103 c157 -56 315 -117 351 -134 124 -62 197 -129 303 -279
11 -17 19 -6 74 110 57 121 153 381 153 416 0 8 -30 44 -68 79 -148 140 -298
239 -547 359 -99 48 -214 110 -255 138 -155 103 -241 227 -259 369 -11 85 -3
170 39 408 41 240 48 382 25 555 -19 150 -15 221 16 318 33 101 123 219 218
285 l25 16 -29 23 c-178 144 -401 273 -627 364 -96 38 -118 51 -185 114 -159
149 -348 229 -621 265 -113 15 -286 18 -352 6z m421 -701 c321 -33 492 -133
565 -330 11 -31 17 -82 18 -165 1 -117 2 -122 38 -194 21 -41 41 -89 44 -108
6 -32 8 -34 37 -27 53 11 108 6 129 -13 58 -53 61 -125 9 -257 -18 -43 -37
-101 -42 -130 -20 -94 -69 -146 -139 -146 -24 0 -30 -4 -30 -20 0 -55 -88
-170 -169 -222 -25 -15 -48 -28 -52 -28 -4 0 -15 24 -24 53 -32 96 -99 183
-169 219 -52 26 -260 88 -298 88 -15 0 -37 -9 -48 -20 l-20 -20 -20 20 c-26
26 -59 25 -161 -5 -46 -14 -94 -27 -107 -30 -108 -19 -234 -158 -258 -282 -3
-18 -8 -33 -11 -33 -2 0 -22 9 -45 21 -86 44 -198 177 -198 237 0 18 -6 22
-31 22 -66 0 -111 47 -135 142 -9 35 -31 104 -50 155 -47 127 -43 184 15 237
18 16 31 18 90 13 l70 -6 7 32 c3 18 23 64 42 102 34 67 36 76 42 201 5 121 8
136 38 196 72 147 234 243 477 283 155 25 245 29 386 15z m-133 -1475 c18 -49
60 -80 137 -99 37 -9 84 -25 104 -36 60 -30 140 -98 147 -124 7 -30 -24 -91
-68 -132 -116 -110 -259 -95 -303 32 -10 30 -18 39 -36 39 -17 0 -25 -9 -36
-39 -34 -101 -122 -132 -230 -82 -58 27 -124 90 -143 137 -13 29 -11 32 35 79
55 56 155 112 233 130 63 15 106 48 124 95 6 19 15 35 18 35 3 0 12 -16 18
-35z"/>
</g>
</svg>
