<?xml version="1.0" standalone="no"?>
<!DOCTYPE svg PUBLIC "-//W3C//DTD SVG 20010904//EN"
 "http://www.w3.org/TR/2001/REC-SVG-20010904/DTD/svg10.dtd">
<svg version="1.0" xmlns="http://www.w3.org/2000/svg"
 width="512.000000pt" height="512.000000pt" viewBox="0 0 512.000000 512.000000"
 preserveAspectRatio="xMidYMid meet">

<g transform="translate(0.000000,512.000000) scale(0.100000,-0.100000)"
fill="#000000" stroke="none">
<path d="M2505 5109 c-222 -31 -402 -106 -514 -217 -38 -37 -82 -92 -100 -123
-39 -70 -64 -92 -125 -113 -103 -34 -202 -119 -252 -218 -29 -58 -30 -97 -4
-174 51 -146 130 -523 130 -617 0 -19 7 -26 28 -31 15 -4 34 -9 43 -12 12 -3
18 4 23 29 3 18 23 66 43 107 36 74 37 77 43 230 8 200 29 269 104 346 41 42
63 56 111 70 95 28 208 23 375 -16 157 -37 170 -37 340 11 100 28 263 31 336
6 65 -23 112 -57 146 -109 46 -68 60 -129 67 -303 7 -152 9 -163 38 -220 17
-33 37 -80 44 -105 7 -25 13 -46 14 -47 0 -1 21 4 45 11 l45 13 7 79 c16 193
63 381 130 526 34 73 40 95 35 129 -7 53 -85 215 -141 293 -89 124 -228 234
-344 272 -30 9 -56 23 -59 31 -4 9 9 26 31 44 40 34 45 53 18 68 -61 33 -513
60 -657 40z"/>
<path d="M1906 2200 c-98 -64 -235 -195 -243 -232 -3 -16 -14 -30 -27 -34
-123 -35 -716 -234 -797 -267 -227 -94 -319 -176 -385 -349 l-26 -68 55 -90
c177 -287 454 -570 747 -763 119 -78 337 -187 485 -242 207 -77 473 -133 683
-142 l132 -6 0 746 c0 485 4 755 10 773 16 41 4 60 -67 111 -61 43 -67 45 -79
29 -7 -10 -79 -94 -160 -187 -120 -138 -154 -171 -185 -180 -73 -22 -123 10
-174 111 -33 66 -34 70 -24 130 5 34 20 83 34 109 45 90 162 172 265 187 25 4
48 9 53 11 4 2 -13 28 -38 56 -52 60 -113 173 -145 269 -12 37 -25 70 -30 73
-4 3 -42 -17 -84 -45z"/>
</g>
</svg>
