<?xml version="1.0" standalone="no"?>
<!DOCTYPE svg PUBLIC "-//W3C//DTD SVG 20010904//EN"
 "http://www.w3.org/TR/2001/REC-SVG-20010904/DTD/svg10.dtd">
<svg version="1.0" xmlns="http://www.w3.org/2000/svg"
 width="512.000000pt" height="512.000000pt" viewBox="0 0 512.000000 512.000000"
 preserveAspectRatio="xMidYMid meet">

<g transform="translate(0.000000,512.000000) scale(0.100000,-0.100000)"
fill="#000000" stroke="none">
<path d="M2470 4676 c-140 -30 -272 -95 -369 -182 -42 -38 -62 -48 -116 -59
-186 -39 -312 -175 -362 -390 -26 -116 -24 -347 6 -519 l23 -129 101 -113 c56
-63 103 -110 104 -106 1 4 25 121 52 261 28 140 52 256 55 258 2 2 30 -3 62
-11 122 -31 295 -57 462 -68 204 -14 372 -3 547 37 60 14 112 22 116 17 3 -4
28 -118 55 -254 27 -137 51 -248 54 -248 3 0 50 50 104 111 92 104 100 116
112 174 17 83 35 306 28 344 -6 26 -2 32 37 56 57 35 209 148 209 156 0 3 -53
58 -117 123 -254 256 -517 433 -766 518 -79 27 -109 32 -212 34 -74 2 -145 -2
-185 -10z"/>
<path d="M1094 1805 c-180 -39 -314 -181 -343 -365 -6 -36 -11 -203 -11 -371
l0 -307 68 -64 c167 -157 405 -325 601 -423 161 -81 426 -176 555 -200 l36 -7
0 876 0 876 -422 -1 c-312 0 -439 -4 -484 -14z"/>
<path d="M3120 941 l0 -880 113 31 c393 105 778 320 1073 600 l74 71 0 323 c0
199 -4 343 -11 376 -25 119 -97 221 -202 289 -100 65 -138 69 -621 69 l-426 0
0 -879z"/>
</g>
</svg>
