<?xml version="1.0" standalone="no"?>
<!DOCTYPE svg PUBLIC "-//W3C//DTD SVG 20010904//EN"
 "http://www.w3.org/TR/2001/REC-SVG-20010904/DTD/svg10.dtd">
<svg version="1.0" xmlns="http://www.w3.org/2000/svg"
 width="512.000000pt" height="512.000000pt" viewBox="0 0 512.000000 512.000000"
 preserveAspectRatio="xMidYMid meet">

<g transform="translate(0.000000,512.000000) scale(0.100000,-0.100000)"
fill="#000000" stroke="none">
<path d="M2480 5113 c-14 -3 -53 -18 -87 -33 -128 -58 -221 -192 -231 -333
l-5 -70 30 21 c196 139 521 149 726 22 27 -17 50 -30 53 -30 12 0 1 107 -17
155 -43 116 -129 204 -238 246 -54 20 -183 33 -231 22z"/>
<path d="M2425 4719 c-340 -44 -612 -246 -724 -538 -44 -115 -51 -173 -51
-431 l0 -235 43 -11 c23 -6 50 -14 60 -19 11 -5 17 -3 17 6 0 8 15 38 34 69
29 46 36 71 46 153 31 263 145 410 341 437 73 10 162 -1 285 -35 l97 -28 81
26 c45 14 113 31 151 37 272 44 454 -128 482 -454 5 -63 12 -85 40 -128 18
-29 35 -60 38 -69 5 -15 9 -15 53 -1 26 8 53 17 61 19 19 5 9 448 -12 543 -65
289 -268 511 -559 609 -137 47 -343 68 -483 50z"/>
<path d="M3307 2719 c-75 -221 -177 -410 -291 -535 l-55 -61 -12 -109 c-27
-248 5 -519 91 -775 38 -117 132 -320 168 -366 25 -32 63 -38 92 -15 21 17 24
30 31 133 9 135 23 206 88 434 59 207 69 252 79 382 15 174 -8 355 -68 551
-25 79 -68 304 -78 401 l-7 75 -38 -115z"/>
<path d="M1965 2161 c-20 -12 -68 -80 -137 -193 -95 -154 -108 -181 -108 -220
0 -35 6 -50 28 -71 56 -54 282 -141 454 -176 144 -29 201 -34 195 -19 -3 7
-16 44 -28 82 -42 132 -6 260 94 336 l46 34 -59 22 c-75 27 -184 91 -258 152
-41 34 -72 51 -110 60 -71 16 -82 15 -117 -7z"/>
</g>
</svg>
